<svg width="31" height="31" viewBox="0 0 31 31" fill="none" xmlns="http://www.w3.org/2000/svg">
<g clip-path="url(#clip0)">
<path d="M23.2509 11.625C23.2509 5.20527 18.0459 0 11.626 0C5.20627 0 0.00100708 5.20527 0.00100708 11.625C0.00100708 18.0447 5.20627 23.2498 11.626 23.2498C18.0459 23.2498 23.2509 18.0447 23.2509 11.625ZM11.626 20.3434C6.8182 20.3434 2.90734 16.4329 2.90734 11.6251C2.90734 6.81726 6.8182 2.9064 11.626 2.9064C16.4337 2.9064 20.3449 6.81726 20.3449 11.6251C20.3449 16.4329 16.4337 20.3434 11.626 20.3434Z" fill="#839946"/>
<path d="M30.1483 26.0392L23.0364 18.9268C21.9768 20.5748 20.5744 21.9765 18.9264 23.0362L26.0388 30.1487C27.1742 31.2839 29.0152 31.2839 30.1482 30.1487C31.2837 29.0153 31.2837 27.1744 30.1483 26.0392Z" fill="#839946"/>
</g>
<defs>
<clipPath id="clip0">
<rect width="31" height="31" fill="white"/>
</clipPath>
</defs>
</svg>
