<svg width="28" height="28" viewBox="0 0 28 28" fill="none" xmlns="http://www.w3.org/2000/svg">
<path d="M26.4068 26.46C26.404 26.418 26.3984 26.3788 26.3928 26.3368C26.39 26.2528 26.3816 26.1688 26.3648 26.0904C25.7992 21.644 22.8956 17.9284 18.9252 16.2176C21.2184 14.644 22.7248 12.0036 22.7248 9.0104C22.7248 4.1888 18.8188 0.279999 14 0.279999C9.18397 0.279999 5.27797 4.1888 5.27797 9.0104C5.27797 12.0064 6.78437 14.6468 9.08037 16.2204C5.15477 17.9116 2.27077 21.5656 1.66317 25.9476C1.61837 26.0764 1.59317 26.2136 1.59317 26.3592L1.60157 26.4572V26.46L1.60437 26.474C1.60437 27.1628 2.16157 27.72 2.84757 27.72C3.53357 27.72 4.09077 27.1628 4.09077 26.474L4.08797 26.46H4.11037C4.68997 21.7056 8.61277 17.9844 13.4568 17.724C13.636 17.7352 13.818 17.7408 14 17.7408C14.182 17.7408 14.364 17.7352 14.5432 17.724C19.3872 17.9844 23.31 21.7056 23.8896 26.46H23.9148L23.9176 26.474C23.9176 27.1628 24.4748 27.72 25.1608 27.72C25.8468 27.72 26.404 27.1628 26.404 26.474L26.4068 26.46ZM14 15.2488C10.5588 15.2488 7.76717 12.4572 7.76717 9.0132C7.76717 5.5692 10.556 2.7776 14 2.7776C17.4412 2.7776 20.23 5.5692 20.23 9.0132C20.23 12.4572 17.4412 15.2488 14 15.2488Z" fill="#839946"/>
</svg>
