<svg width="34" height="46" viewBox="0 0 34 46" fill="none" xmlns="http://www.w3.org/2000/svg">
<path d="M2.125 46H31.875C33.0485 46 34 44.7127 34 43.125V37.375C34 35.7873 33.0485 34.5 31.875 34.5C30.7015 34.5 29.75 35.7873 29.75 37.375V40.25H4.25V5.75H29.75V8.625C29.75 10.2127 30.7015 11.5 31.875 11.5C33.0485 11.5 34 10.2127 34 8.625V2.875C34 1.28728 33.0485 0 31.875 0H2.125C0.951469 0 0 1.28728 0 2.875V43.125C0 44.7127 0.951469 46 2.125 46Z" fill="#839946"/>
<path d="M24.4977 31.2846C25.1877 31.785 26.0271 31.731 26.6787 31.1421L33.0537 25.3921C33.6451 24.8586 34 23.9616 34 23C34 22.0384 33.6451 21.1413 33.0537 20.6079L26.6787 14.8579C26.3228 14.5372 25.9119 14.375 25.5 14.375C25.1565 14.375 24.811 14.488 24.4977 14.7154C23.8066 15.2152 23.375 16.1894 23.375 17.25V20.125H10.625C9.45147 20.125 8.5 21.4123 8.5 23C8.5 24.5877 9.45147 25.875 10.625 25.875H23.375V28.75C23.375 29.8106 23.8066 30.7848 24.4977 31.2846Z" fill="#839946"/>
</svg>
