<?xml version="1.0"?>
<svg xmlns="http://www.w3.org/2000/svg" xmlns:xlink="http://www.w3.org/1999/xlink" version="1.1" id="Capa_1" x="0px" y="0px" viewBox="0 0 297.008 297.008" style="enable-background:new 0 0 297.008 297.008;" xml:space="preserve" width="512px" height="512px" class=""><g><g>
	<path d="M218.88,116.009l-21.801-32.71c-2.418-3.628-4.703-11.179-4.703-15.538V10.09c0-5.571-4.52-10.09-10.09-10.09h-67.564   c-5.57,0-10.09,4.518-10.09,10.09v57.671c0,4.359-2.285,11.91-4.701,15.538l-21.803,32.71c-4.611,6.92-8.09,18.41-8.09,26.729   v144.181c0,5.571,4.52,10.09,10.092,10.09h136.748c5.572,0,10.092-4.519,10.092-10.09V142.737   C226.97,134.419,223.491,122.93,218.88,116.009z M172.196,20.179v20.37h-47.385v-20.37H172.196z M206.79,276.829H90.218V142.737   c0-4.36,2.285-11.911,4.701-15.538l21.803-32.711c4.611-6.921,8.09-18.411,8.09-26.728V56.692h47.385v11.068   c0,8.317,3.479,19.809,8.092,26.729l21.801,32.71c2.416,3.627,4.701,11.178,4.701,15.538V276.829z" data-original="#000000" class="active-path" data-old_color="#ffffff" fill="#ffffff"/>
	<path d="M176.835,137.621c-2.143,0-4.195,0.851-5.711,2.367L95.89,215.275c-3.148,3.152-3.148,8.259,0,11.411   c11.574,11.579,26.961,17.957,43.328,17.957c16.369,0,31.754-6.378,43.326-17.957c23.889-23.904,23.889-62.798,0-86.7   C181.03,138.472,178.974,137.621,176.835,137.621z M176.323,157.624c3.67,5.298,6.068,11.214,7.213,17.323l-25.518,0.993   L176.323,157.624z M147.927,203.47l16.984,16.995c-5.377,3.746-11.471,6.245-17.93,7.361L147.927,203.47z M131.821,202.154   l-0.994,25.57c-6.229-1.166-12.107-3.626-17.313-7.25L131.821,202.154z M176.323,209.048l-16.992-17.004l24.326-0.946   C182.563,197.428,180.118,203.567,176.323,209.048z" data-original="#000000" class="active-path" data-old_color="#ffffff" fill="#ffffff"/>
</g></g> </svg>
