<svg width="37" height="35" viewBox="0 0 37 35" fill="none" xmlns="http://www.w3.org/2000/svg">
<path d="M36.2283 6.68831C35.5628 5.92129 34.5531 5.49436 33.5051 5.49436H10.7629C10.1127 5.49436 9.4931 5.66802 8.95763 5.97917L7.7949 2.13682C7.60366 1.50728 6.99935 1.07312 6.31089 1.07312H4.54384H1.17038C0.52782 1.07312 0 1.56517 0 2.18024V2.29602C0 2.90385 0.52017 3.40313 1.17038 3.40313H5.59183L7.84845 10.9504L10.9542 21.3631C9.18712 21.7828 7.87905 23.2951 7.87905 25.0896C7.87905 27.123 9.5543 28.7945 11.6732 28.9248C11.4973 29.4023 11.4131 29.9306 11.459 30.4733C11.612 32.3112 13.1955 33.7946 15.1385 33.9176C17.4563 34.0696 19.3916 32.3257 19.3916 30.1694C19.3916 29.7352 19.3151 29.3227 19.1698 28.932H23.8207C23.6295 29.4457 23.553 30.0174 23.6218 30.6035C23.836 32.3836 25.3889 33.7874 27.286 33.9176C29.6038 34.0696 31.5468 32.3329 31.5468 30.1694C31.5468 28.0781 29.7109 26.4066 27.5078 26.4066H11.9716C11.2143 26.4066 10.5717 25.8494 10.5411 25.1403C10.5105 24.3877 11.1454 23.7727 11.9333 23.7727H14.2664H26.9111H30.4682C32.044 23.7727 33.4209 22.7524 33.8034 21.3052L36.8938 9.53932C37.1616 8.52627 36.9168 7.49151 36.2283 6.68831ZM27.5767 28.9248C28.2957 28.9248 28.8847 29.4819 28.8847 30.1621C28.8847 30.8423 28.2957 31.3995 27.5767 31.3995C26.8576 31.3995 26.2686 30.8423 26.2686 30.1621C26.2686 29.4819 26.85 28.9248 27.5767 28.9248ZM15.4215 28.9248C16.1406 28.9248 16.7296 29.4819 16.7296 30.1621C16.7296 30.8423 16.1406 31.3995 15.4215 31.3995C14.7025 31.3995 14.1134 30.8423 14.1134 30.1621C14.1134 29.4819 14.6948 28.9248 15.4215 28.9248ZM10.6176 10.9359L10.0209 8.94596C9.92913 8.64205 10.0592 8.41773 10.151 8.30919C10.2351 8.20065 10.434 8.01975 10.7629 8.01975H13.2567L13.9375 10.9431H10.6176V10.9359V10.9359ZM11.3672 13.454H14.5189L15.1461 16.1603H12.1704L11.3672 13.454ZM14.2664 21.24C13.9222 21.24 13.6162 21.023 13.5244 20.7046L12.9201 18.6785H15.7275L16.3242 21.2328H14.2664V21.24V21.24ZM20.9292 21.24H19.0474L18.4507 18.6857H20.9215V21.24H20.9292ZM20.9292 16.1603H17.8694L17.2421 13.454H20.9292V16.1603ZM20.9292 10.9359H16.6607L15.9799 8.01251H20.9292V10.9359ZM25.7025 21.24H23.5989V18.6857H26.2686L25.7025 21.24ZM26.8347 16.1603H23.5989V13.454H27.439L26.8347 16.1603ZM23.5989 10.9359V8.01251H28.6476L27.9974 10.9359H23.5989ZM31.2255 20.6901C31.1414 21.0157 30.8354 21.2473 30.4758 21.2473H28.4258L28.9995 18.6929H31.7533L31.2255 20.6901ZM32.4112 16.1603H29.5579L30.1622 13.454H33.1226L32.4112 16.1603ZM34.3083 8.91702L33.7805 10.9286H30.7206L31.3708 8.00527H33.5586C33.8875 8.00527 34.0788 8.17894 34.1629 8.28748C34.2547 8.39602 34.3924 8.62034 34.3083 8.91702Z" fill="#839946"/>
</svg>
