<svg width="37" height="37" viewBox="0 0 37 37" fill="none" xmlns="http://www.w3.org/2000/svg">
<path d="M18.5 30.155C16.7203 30.155 15.2625 31.6128 15.2625 33.3925C15.2625 35.1722 16.7203 36.63 18.5 36.63C20.2797 36.63 21.7375 35.1722 21.7375 33.3925C21.7375 31.6128 20.2797 30.155 18.5 30.155Z" fill="#839946"/>
<path d="M25.8075 3.39659C23.8539 1.4467 21.2602 0.369995 18.5 0.369995C15.7398 0.369995 13.1461 1.4467 11.1925 3.39659C9.24259 5.34649 8.16589 7.94389 8.16589 10.7041C8.16589 12.136 9.32399 13.2941 10.7559 13.2941C12.1878 13.2941 13.3459 12.136 13.3459 10.7041C13.3459 7.86249 15.6584 5.54999 18.5 5.54999C21.3416 5.54999 23.6541 7.86249 23.6541 10.7041C23.6541 11.9806 23.3507 12.913 21.7523 14.1932C19.9023 15.6658 16.465 18.4149 15.9507 23.4136C15.8027 24.8381 16.8387 26.1072 18.2632 26.2552C18.352 26.2663 18.4445 26.27 18.5333 26.27C19.8431 26.27 20.9679 25.2784 21.1048 23.9464C21.2306 22.7254 21.682 21.6302 22.4886 20.6016C23.2545 19.6248 24.2128 18.8552 24.9861 18.241C27.6464 16.1135 28.8341 13.7899 28.8341 10.7078C28.8341 7.94389 27.7574 5.34649 25.8075 3.39659Z" fill="#839946"/>
</svg>
