<svg width="32" height="38" viewBox="0 0 32 38" fill="none" xmlns="http://www.w3.org/2000/svg">
<g clip-path="url(#clip0)">
<path d="M23.8707 35.847L25.0882 34.4013L26.3056 35.847L27.523 37.2927L28.7404 35.847V11.8376C28.7404 10.4541 27.7979 9.32706 26.6263 9.32706H9.60196C10.767 9.32706 11.7161 10.4463 11.7161 11.8376V35.8392L12.9335 37.2849L14.1509 35.8392L15.3684 34.3935L16.5858 35.8392L17.8032 37.2849L19.0207 35.8392L20.2381 34.3935L21.4555 35.8392L22.6729 37.2849L23.8707 35.847Z" fill="#EBE5E6"/>
<path d="M14.74 15.4674H25.8147C26.142 15.4674 26.4103 15.1487 26.4103 14.7601C26.4103 14.3714 26.142 14.0528 25.8147 14.0528H14.74C14.4128 14.0528 14.1444 14.3714 14.1444 14.7601C14.1444 15.1487 14.4128 15.4674 14.74 15.4674Z" fill="#66921C"/>
<path d="M14.74 19.2215H22.7842C23.1115 19.2215 23.3798 18.9028 23.3798 18.5142C23.3798 18.1256 23.1115 17.8069 22.7842 17.8069H14.74C14.4128 17.8069 14.1444 18.1256 14.1444 18.5142C14.1444 18.9106 14.4128 19.2215 14.74 19.2215Z" fill="#66921C"/>
<path d="M14.74 22.6647H25.8147C26.142 22.6647 26.4103 22.3461 26.4103 21.9574C26.4103 21.5688 26.142 21.2501 25.8147 21.2501H14.74C14.4128 21.2501 14.1444 21.5688 14.1444 21.9574C14.1444 22.3538 14.4128 22.6647 14.74 22.6647Z" fill="#66921C"/>
<path d="M15.7938 25.1753H14.74C14.4128 25.1753 14.1444 25.494 14.1444 25.8826C14.1444 26.2712 14.4128 26.5899 14.74 26.5899H15.7938C16.1211 26.5899 16.3895 26.2712 16.3895 25.8826C16.3895 25.494 16.1211 25.1753 15.7938 25.1753Z" fill="#66921C"/>
<path d="M15.7938 28.6185H14.74C14.4128 28.6185 14.1444 28.9372 14.1444 29.3258C14.1444 29.7144 14.4128 30.0331 14.74 30.0331H15.7938C16.1211 30.0331 16.3895 29.7144 16.3895 29.3258C16.3829 28.9294 16.1211 28.6185 15.7938 28.6185Z" fill="#66921C"/>
<path d="M25.8147 25.1753H18.1632C17.836 25.1753 17.5676 25.494 17.5676 25.8826C17.5676 26.2712 17.836 26.5899 18.1632 26.5899H25.8147C26.1419 26.5899 26.4103 26.2712 26.4103 25.8826C26.4103 25.494 26.1419 25.1753 25.8147 25.1753Z" fill="#66921C"/>
<path d="M23.3733 29.3181C23.3733 28.9294 23.1049 28.6107 22.7777 28.6107H18.1632C17.836 28.6107 17.5676 28.9294 17.5676 29.3181C17.5676 29.7067 17.836 30.0254 18.1632 30.0254H22.7777C23.1049 30.0254 23.3733 29.7067 23.3733 29.3181Z" fill="#66921C"/>
<path d="M22.2344 37.7901C22.4635 38.0622 22.8431 38.0622 23.0722 37.7901L25.0882 35.3962L27.1041 37.7901C27.2219 37.93 27.3725 38 27.523 38C27.6736 38 27.8241 37.93 27.9419 37.7901L29.1593 36.3444C29.2706 36.2123 29.3361 36.0335 29.3361 35.847V11.8376C29.3361 10.0654 28.1252 8.62752 26.6328 8.62752H22.0839V0.707287C22.0839 0.318659 21.8155 -1.52588e-05 21.4882 -1.52588e-05H3.25956C2.9323 -1.52588e-05 2.66394 0.318659 2.66394 0.707287V24.7089C2.66394 26.4811 3.87482 27.919 5.36715 27.919H8.79689C9.12416 27.919 9.39252 27.6003 9.39252 27.2117C9.39252 26.8231 9.12416 26.5044 8.79689 26.5044H7.60565C7.90019 25.9914 8.07691 25.3696 8.07691 24.7012V11.8376C8.07691 10.8427 8.75762 10.0343 9.59542 10.0343C10.4332 10.0343 11.1139 10.8427 11.1139 11.8376V35.8392C11.1139 35.8859 11.1205 35.9325 11.127 35.9791C11.1336 36.0102 11.1401 36.0335 11.1467 36.0646C11.1532 36.0802 11.1532 36.0957 11.1597 36.1113C11.1728 36.1423 11.1859 36.1734 11.199 36.1968C11.2056 36.2045 11.2056 36.2201 11.2121 36.2278C11.2317 36.2667 11.2579 36.3056 11.2841 36.3367L12.5015 37.7824C12.7306 38.0544 13.1102 38.0544 13.3393 37.7824L15.3553 35.3884L17.3712 37.7824C17.6003 38.0544 17.98 38.0544 18.209 37.7824L20.225 35.3884L22.2344 37.7901ZM6.89221 11.8376V24.7089C6.89221 25.7038 6.2115 26.5122 5.3737 26.5122C4.5359 26.5122 3.85519 25.7038 3.85519 24.7089V1.40682H20.8992V8.62752H9.59542C8.10309 8.62752 6.89221 10.0654 6.89221 11.8376ZM17.7901 36.29L15.7742 33.8961C15.6564 33.7562 15.5058 33.6862 15.3553 33.6862C15.2047 33.6862 15.0542 33.7562 14.9364 33.8961L12.9204 36.29L12.2986 35.5516V11.8376C12.2986 11.7365 12.2921 11.6355 12.2855 11.5422C12.2855 11.5111 12.279 11.4878 12.279 11.4567C12.2725 11.3868 12.2659 11.3168 12.2528 11.2469C12.2463 11.2158 12.2463 11.1925 12.2397 11.1614C12.2266 11.0759 12.207 10.9826 12.1808 10.8971C12.1808 10.8893 12.1808 10.8893 12.1743 10.8816C12.1481 10.7883 12.1219 10.7028 12.0892 10.6173C12.0826 10.594 12.0695 10.5707 12.063 10.5396C12.0368 10.4774 12.0172 10.4152 11.9845 10.353C11.9714 10.3297 11.9648 10.3064 11.9517 10.2753C11.919 10.2053 11.8797 10.1276 11.8405 10.0577C11.8339 10.0499 11.8339 10.0421 11.8274 10.0343C11.8274 10.0343 11.8274 10.0343 11.8274 10.0266H26.6132C27.451 10.0266 28.1317 10.8349 28.1317 11.8298V35.5516L27.5099 36.29L25.494 33.8961C25.2649 33.624 24.8853 33.624 24.6562 33.8961L22.6402 36.29L20.6439 33.9039C20.4148 33.6318 20.0352 33.6318 19.8061 33.9039L17.7901 36.29Z" fill="#66921C"/>
</g>
<defs>
<clipPath id="clip0">
<rect width="32" height="38" fill="white"/>
</clipPath>
</defs>
</svg>
