<?xml version="1.0"?>
<svg xmlns="http://www.w3.org/2000/svg" xmlns:xlink="http://www.w3.org/1999/xlink" version="1.1" id="Capa_1" x="0px" y="0px" viewBox="0 0 299.429 299.429" style="enable-background:new 0 0 299.429 299.429;" xml:space="preserve" width="512px" height="512px"><g><g>
	<path d="M299.018,69.65c-0.9-3.919-3.601-9.32-11.492-12.763c-3.336-1.483-6.725-1.271-9.479-1.165   c-1.112,0.053-2.754,0.159-3.124,0.053c-1.801-1.165-5.031-6.567-5.613-9.32c-3.707-17.529-19.17-22.718-21.765-23.513   c-1.853-0.635-3.919-1.006-6.09-1.377c-1.853-0.318-5.349-0.953-6.143-1.536c-0.371-0.477-0.847-2.277-1.165-3.495   c-0.688-2.701-1.536-6.037-3.813-8.844c-5.613-6.937-11.598-7.996-15.569-7.626c-5.984,0.53-11.65,4.713-15.146,11.174   c-7.52,13.716-8.791,32.886-3.866,57.087c-7.732-0.794-16.152-0.265-24.996,1.642c-22.507,4.872-45.49,18.111-64.713,37.335   c-27.167,27.167-41.041,60.9-38.923,88.226c-23.672-4.66-42.418-3.283-55.922,4.131c-6.461,3.548-10.591,9.214-11.121,15.146   c-0.371,3.972,0.688,9.956,7.626,15.569c2.807,2.277,6.143,3.124,8.844,3.813c1.218,0.318,3.019,0.794,3.389,1.059   c0.688,0.9,1.271,4.342,1.589,6.249c0.371,2.171,0.741,4.237,1.377,6.09c0.741,2.595,5.984,18.058,23.513,21.765   c2.754,0.583,8.155,3.866,9.214,5.455c0.159,0.53,0.106,2.171,0.053,3.23c-0.159,2.701-0.318,6.09,1.165,9.479   c3.442,7.891,8.844,10.591,12.763,11.492c1.218,0.265,2.489,0.424,3.76,0.424c4.925,0,10.115-2.012,14.457-5.772   c11.756-10.168,19.011-27.167,21.553-50.574c3.707,0.635,7.573,0.953,11.545,0.953c26.267,0,57.352-13.769,82.718-39.135   c29.603-29.603,43.372-66.884,37.97-95.322c24.201-2.383,41.677-9.691,52.003-21.712C298.329,82.412,300.341,75.634,299.018,69.65z    M79.724,284.23c-2.436,2.065-5.296,3.124-7.308,2.648c-1.642-0.371-3.019-1.853-4.131-4.342c-0.265-0.635-0.212-2.436-0.106-3.813   c0.159-3.124,0.371-6.99-1.959-10.485c-3.601-5.508-12.445-10.062-17.211-11.068c-11.068-2.33-13.981-12.604-14.086-12.974   c-0.053-0.212-0.106-0.424-0.159-0.583c-0.318-0.9-0.635-2.542-0.9-4.184c-0.741-4.237-1.589-9.056-4.607-12.392   c-2.754-3.071-6.567-4.025-9.585-4.819c-1.483-0.371-3.389-0.9-4.078-1.43c-1.218-1.006-3.23-2.913-3.071-4.766   c0.159-1.748,2.065-3.866,4.713-5.349c11.756-6.408,29.391-7.043,52.427-1.801c2.383,7.785,6.355,14.775,12.074,20.441   c4.501,4.501,9.744,7.891,15.569,10.327C95.24,260.929,89.362,275.916,79.724,284.23z M194.799,196.11   c-35.481,35.481-82.295,46.443-104.325,24.36c-22.03-22.03-11.121-68.844,24.36-104.325c17.529-17.529,38.341-29.603,58.517-33.945   c5.349-1.165,10.485-1.748,15.304-1.748c12.551,0,23.089,3.813,30.503,11.28C241.242,113.816,230.28,160.629,194.799,196.11z    M284.19,79.764c-8.526,9.903-24.095,15.834-46.284,17.688c-2.383-5.402-5.666-10.274-9.85-14.51   c-5.296-5.296-11.65-9.162-18.853-11.703c-5.613-23.831-5.19-42.048,1.377-54.016c1.43-2.648,3.601-4.554,5.349-4.713   c1.853-0.159,3.76,1.853,4.766,3.071c0.53,0.688,1.059,2.542,1.43,4.078c0.794,3.071,1.748,6.884,4.819,9.585   c3.336,3.019,8.155,3.866,12.392,4.607c1.642,0.265,3.336,0.583,4.766,1.059c0.424,0.106,10.697,3.071,13.027,14.086   c1.006,4.766,5.508,13.61,11.068,17.211c3.548,2.277,7.414,2.118,10.485,1.959c1.43-0.053,3.177-0.159,3.813,0.106   c2.489,1.112,3.972,2.489,4.342,4.131C287.314,74.469,286.255,77.381,284.19,79.764z" data-original="#000000" class="active-path" data-old_color="#ffffff" fill="#ffffff"/>
</g></g> </svg>
