<?xml version="1.0"?>
<svg xmlns="http://www.w3.org/2000/svg" xmlns:xlink="http://www.w3.org/1999/xlink" version="1.1" id="Capa_1" x="0px" y="0px" viewBox="0 0 32.067 32.067" style="enable-background:new 0 0 32.067 32.067;" xml:space="preserve" width="512px" height="512px" class=""><g><g>
	<path d="M31.865,5.163l-4.962-4.938c-0.172-0.172-0.421-0.238-0.656-0.178   c-0.235,0.06-0.421,0.24-0.488,0.473l-1.091,3.76c-1.261-0.727-2.696-1.122-4.197-1.122c-2.253,0-4.365,0.871-5.947,2.455   L1.685,18.452c-2.64,2.641-2.121,7.456,1.158,10.735c1.814,1.814,4.153,2.855,6.419,2.855c1.689,0,3.219-0.601,4.312-1.692   c0.001-0.001,0.003-0.002,0.004-0.003l12.839-12.839c2.739-2.739,3.181-6.91,1.345-10.121l3.805-1.076   c0.234-0.067,0.416-0.253,0.477-0.489C32.106,5.585,32.038,5.335,31.865,5.163z M4.3,27.73c-2.476-2.476-2.996-5.984-1.159-7.822   c0.715-0.714,1.704-1.092,2.86-1.092c1.724,0,3.532,0.821,4.962,2.251c2.477,2.476,2.996,5.985,1.159,7.822   c-0.714,0.715-1.703,1.092-2.86,1.092C7.539,29.981,5.73,29.162,4.3,27.73z M24.962,16.05l-9.71,9.709   c-0.078-2.105-1.039-4.357-2.832-6.149c-1.74-1.74-3.966-2.757-6.144-2.837l9.705-9.704c1.194-1.194,2.789-1.852,4.491-1.852   c1.701,0,3.296,0.658,4.49,1.852C27.437,9.546,27.437,13.574,24.962,16.05z M26.941,6.191c-0.165-0.198-0.337-0.393-0.523-0.578   c-0.179-0.179-0.367-0.346-0.559-0.507l0.896-3.09l3.309,3.292L26.941,6.191z" data-original="#010002" class="active-path" data-old_color="#ffffff" fill="#ffffff"/>
	<path d="M4.077,21.646c-0.384,0-0.735,0.14-0.987,0.394c-0.3,0.299-0.438,0.733-0.38,1.191   c0.052,0.418,0.258,0.825,0.581,1.148c0.378,0.378,0.871,0.595,1.353,0.595c0.383,0,0.734-0.14,0.988-0.393   c0.589-0.59,0.499-1.64-0.202-2.34C5.053,21.863,4.559,21.646,4.077,21.646z M4.903,23.852c-0.076,0.076-0.184,0.092-0.26,0.092   c-0.208,0-0.441-0.109-0.625-0.292c-0.159-0.16-0.264-0.358-0.287-0.548c-0.011-0.083-0.014-0.237,0.086-0.336   c0.075-0.076,0.183-0.092,0.259-0.092c0.208,0,0.441,0.109,0.625,0.293C5.021,23.289,5.064,23.691,4.903,23.852z" data-original="#010002" class="active-path" data-old_color="#ffffff" fill="#ffffff"/>
	<path d="M10.426,21.665c-0.377-0.377-0.871-0.594-1.353-0.594c-0.383,0-0.734,0.14-0.987,0.393   c-0.525,0.525-0.508,1.413-0.005,2.096c0.102,0.245,0.25,0.477,0.448,0.675c0.378,0.376,0.871,0.593,1.353,0.593   c0.384,0,0.734-0.139,0.988-0.393c0.526-0.526,0.508-1.415,0.003-2.099C10.77,22.093,10.623,21.862,10.426,21.665z M9.985,22.941   c0.011,0.083,0.014,0.237-0.086,0.337c-0.076,0.075-0.183,0.091-0.259,0.091c-0.207,0-0.441-0.109-0.625-0.292   c-0.005-0.005-0.007-0.011-0.012-0.016c-0.009-0.034-0.029-0.068-0.033-0.102c-0.011-0.083-0.013-0.237,0.087-0.337   c0.075-0.075,0.183-0.091,0.259-0.091c0.208,0,0.441,0.108,0.625,0.292c0.005,0.005,0.007,0.011,0.012,0.016   C9.961,22.873,9.981,22.907,9.985,22.941z" data-original="#010002" class="active-path" data-old_color="#ffffff" fill="#ffffff"/>
	<path d="M8.165,25.583c-0.383,0-0.734,0.14-0.987,0.393c-0.299,0.299-0.438,0.734-0.38,1.193   c0.052,0.417,0.259,0.825,0.582,1.147c0.377,0.377,0.871,0.594,1.352,0.594c0.383,0,0.734-0.139,0.988-0.393   c0.59-0.59,0.5-1.64-0.201-2.341C9.14,25.799,8.647,25.583,8.165,25.583z M8.991,27.789c-0.075,0.076-0.183,0.092-0.26,0.092   c-0.208,0-0.441-0.109-0.625-0.292c-0.159-0.16-0.264-0.359-0.287-0.548c-0.011-0.083-0.014-0.237,0.086-0.337   c0.075-0.075,0.183-0.091,0.259-0.091c0.208,0,0.441,0.108,0.625,0.292C9.109,27.225,9.152,27.628,8.991,27.789z" data-original="#010002" class="active-path" data-old_color="#ffffff" fill="#ffffff"/>
</g></g> </svg>
