<?xml version="1.0"?>
<svg xmlns="http://www.w3.org/2000/svg" xmlns:xlink="http://www.w3.org/1999/xlink" version="1.1" id="Capa_1" x="0px" y="0px" width="512px" height="512px" viewBox="0 0 367.005 367.004" style="enable-background:new 0 0 367.005 367.004;" xml:space="preserve" class=""><g><g>
	<g>
		<path d="M186.384,137.892c-34.301,0-62.209,27.908-62.209,62.21c0,34.301,27.908,62.205,62.209,62.205    c34.302,0,62.209-27.904,62.209-62.205C248.593,165.8,220.686,137.892,186.384,137.892z M186.384,245.553    c-25.063,0-45.455-20.391-45.455-45.451c0-25.063,20.392-45.454,45.455-45.454c25.062,0,45.454,20.391,45.454,45.454    C231.838,225.163,211.446,245.553,186.384,245.553z" data-original="#000000" class="active-path" data-old_color="#Ffffff" fill="#Ffffff"/>
		<path d="M354.024,128.181c-11.412-25.709-30.805-30.787-44.962-34.495c-6.959-1.82-12.968-3.396-16.883-6.771    c-5.266-4.54-10.145-15.927-14.444-25.971c-4.838-11.292-9.406-21.958-15.977-28.569C244.367,14.884,219.73,4.852,194.164,4.852    c-17.913,0-36.31,4.676-54.678,13.902c-39.425,19.799-46.625,45.618-51.883,64.47c-1.824,6.543-3.399,12.191-5.958,16.262    c-3.392,5.397-9.973,8.122-18.306,11.57c-9.84,4.074-22.089,9.145-32.816,20.776C-1.042,166.056-8.536,213.542,9.961,262.111    c10.236,26.868,28.552,44.062,59.391,55.751c14.131,5.354,27.814,6.311,41.047,7.232c7.67,0.533,14.915,1.039,22.241,2.352    c8.574,1.535,20.438,7.082,33,12.955c21.804,10.193,46.515,21.752,71.112,21.752l0.507-0.002    c38.804-0.256,73.842-21.568,98.659-60.016C369.175,250.62,376.62,179.086,354.024,128.181z M321.841,293.051    c-21.648,33.537-51.728,52.127-84.69,52.344l-0.396,0.002c-20.874,0-43.794-10.717-64.015-20.172    c-14.174-6.629-26.415-12.352-37.148-14.271c-8.212-1.469-16.25-2.029-24.024-2.572c-12.574-0.877-24.453-1.707-36.273-6.186    c-26.323-9.979-41.178-23.748-49.672-46.049C9.233,213.116,15.349,173,42.841,143.192c8.227-8.92,17.725-12.853,26.91-16.655    c9.758-4.037,19.847-8.216,26.081-18.133c3.855-6.136,5.827-13.2,7.911-20.678c4.907-17.592,10.466-37.529,43.262-54    c16.015-8.042,31.882-12.118,47.16-12.118c21.138,0,41.443,8.229,55.711,22.582c4.312,4.338,8.453,14.004,12.458,23.353    c5.263,12.286,10.703,24.991,18.907,32.062c6.854,5.91,15.354,8.138,23.576,10.289c13.242,3.47,25.75,6.744,33.893,25.086    C359.143,181.011,352.207,246.012,321.841,293.051z" data-original="#000000" class="active-path" data-old_color="#Ffffff" fill="#Ffffff"/>
	</g>
</g></g> </svg>
